<svg width="588" height="201" xmlns="http://www.w3.org/2000/svg"><path d="M32.62 191.85a13.24 13.24 0 0 1-4.86 5.44c-3.38 2.14-7.74 2.76-11 2.76-11.15 0-16.67-6.41-16.67-14.57 0-6.49 3.22-9.49 5.09-10.88 1.16-.94 4.43-3.46 11.46-3.46 2 0 6.77.27 10.46 2.56a14.83 14.83 0 0 1 5 5.36l-4.2.94a8.55 8.55 0 0 0-3-3.38 15.54 15.54 0 0 0-8.19-2.01c-6.53 0-12.59 3.07-12.59 10.8a11.42 11.42 0 0 0 2.83 7.81c1.87 1.91 5.06 3.5 10 3.5 4.24 0 7.08-1.05 8.75-2.37a9.4 9.4 0 0 0 2.76-3.3l4.16.8zm48-5.79c0 9.37-7.7 14.07-16.52 14.07-4 0-8-.74-11.27-3a12.9 12.9 0 0 1-5.56-11.08c0-10.14 8.36-14.73 16.56-14.73 9.62.01 16.79 5.65 16.79 14.74zm-29.46-.27a10.53 10.53 0 0 0 2.41 7c2.56 3 6.57 4 10.53 4 10.14 0 12.59-6.42 12.59-11.08 0-7.23-5.79-11.23-13.29-11-5.69.08-12.22 2.96-12.22 11.08h-.02zm46.46-13.84h5.36l8.55 17.88c1.36 2.95 1.6 3.54 2.64 6.14a61.15 61.15 0 0 1 2.49-6l8.67-18h5.29v27.44h-3.65v-15.8a55.39 55.39 0 0 1 .35-8.39 43 43 0 0 1-2.06 4.82l-9.37 19.35h-3.57l-8.6-17.78a55.66 55.66 0 0 1-2.76-6.26 61.58 61.58 0 0 1 .31 7v17.1h-3.65v-27.5zm52.19 0h5.36l8.55 17.88c1.36 2.95 1.6 3.54 2.65 6.14a58.66 58.66 0 0 1 2.48-6l8.67-18h5.29v27.44h-3.66v-15.8a55.39 55.39 0 0 1 .35-8.39 41.25 41.25 0 0 1-2.06 4.82l-9.36 19.35h-3.58l-8.59-17.78a57.57 57.57 0 0 1-2.76-6.26 57 57 0 0 1 .31 7v17.1h-3.65v-27.5zm56.12 0v16.29c0 3.18.35 5.05 2.72 6.56 1 .67 3.19 1.87 7.54 1.87a16.43 16.43 0 0 0 6.49-1.2c3.53-1.6 3.53-4.44 3.53-6.73v-16.79h3.93v16.48c0 2.76 0 6.53-4.2 9.25-1.9 1.24-5 2.37-9.79 2.37-3.58 0-7.19-.58-10.14-2.64-3.89-2.68-4-6.22-4-9.33v-16.13h3.92zm47.45 0l18.5 19.66a43.29 43.29 0 0 1 2.91 3.34 39.25 39.25 0 0 1-.23-4v-19h3.73v27.44h-3.81l-19.43-20.56c-1-1.13-1.32-1.52-2.14-2.52a42.32 42.32 0 0 1 .2 4.74v18.34h-3.73v-27.44h4zm44.07 0h4v27.44h-4zm53.47 19.9a13.21 13.21 0 0 1-4.85 5.44c-3.38 2.14-7.74 2.76-11 2.76-11.16 0-16.67-6.41-16.67-14.57 0-6.49 3.22-9.49 5.09-10.88 1.16-.94 4.43-3.46 11.46-3.46 2 0 6.76.27 10.46 2.56a14.83 14.83 0 0 1 5 5.36l-4.2.94a8.55 8.55 0 0 0-3-3.38 15.54 15.54 0 0 0-8.12-2.06c-6.53 0-12.59 3.07-12.59 10.8a11.42 11.42 0 0 0 2.83 7.81c1.87 1.91 5.06 3.5 10 3.5 4.24 0 7.07-1.05 8.75-2.37a9.24 9.24 0 0 0 2.75-3.3l4.09.85zm25.46-19.94h4.12l14.12 27.48h-4.47l-3.39-6.78h-16.87l-3.34 6.76h-4.36l14.19-27.46zm2.91 6c-.19-.47-.42-.93-.62-1.4a10.42 10.42 0 0 1-.31-1.05c-.12.35-.23.74-.39 1.13-.16.39-.43 1-.66 1.47l-5.79 11.39h13.56l-5.79-11.54zm21.88-5.96h26.31v3.27h-11.23v24.17h-3.88v-24.17h-11.2zm41.08 0h4v27.44h-4zm54.21 14.11c0 9.37-7.69 14.07-16.51 14.07-4 0-8.05-.74-11.27-3a12.88 12.88 0 0 1-5.56-11.08c0-10.14 8.36-14.73 16.56-14.73 9.6.01 16.78 5.65 16.78 14.74zm-29.45-.27a10.57 10.57 0 0 0 2.4 7c2.57 3 6.57 4 10.54 4 10.14 0 12.59-6.42 12.59-11.08 0-7.23-5.79-11.23-13.29-11-5.72.08-12.24 2.96-12.24 11.08zm50.48-13.84l18.5 19.66a43.29 43.29 0 0 1 2.91 3.34 39.25 39.25 0 0 1-.23-4v-19h3.73v27.44h-3.78l-19.43-20.56c-1-1.13-1.32-1.52-2.14-2.52a42.32 42.32 0 0 1 .2 4.74v18.34h-3.73v-27.44h3.97zm44.34 20.41a8 8 0 0 0 1.9 1.67 17.86 17.86 0 0 0 10.26 2.68c6 0 9.33-2.22 9.33-5.56 0-3.81-4.31-4.16-9.75-4.62-6.88-.59-9.25-.78-11.35-2.69a5.93 5.93 0 0 1-1.94-4.58c0-7.81 10.33-8 12.86-8 3.85 0 7.73.62 10.92 2.76a9.77 9.77 0 0 1 2.76 2.76l-3.54 1.44a11.37 11.37 0 0 0-1.59-1.44 14.36 14.36 0 0 0-8.47-2.29 16.83 16.83 0 0 0-6.6 1.12 3.83 3.83 0 0 0-2.45 3.46 3 3 0 0 0 .82 2.1c.93 1.09 2.37 1.32 4.93 1.6 2.56.28 4.94.42 7.43.7a26.91 26.91 0 0 1 3.53.54c3 .7 6.3 2.6 6.3 7.11a7.88 7.88 0 0 1-1.4 4.59c-2.14 3-6.37 4.35-12 4.35a31.22 31.22 0 0 1-7.07-.82c-5.64-1.39-7.62-4.27-8.4-5.4l3.52-1.48zM67.95 4.98h1.67a12.32 12.32 0 0 1 7.94 2.86c2.4 1.9 3.59 5.49 3.59 10.74v92.46a14.17 14.17 0 0 1-3.28 9.71 10.55 10.55 0 0 1-8.25 3.73h-1.67v1.33h39.41v-1.33h-1.74a11.12 11.12 0 0 1-8.38-3.69 13.67 13.67 0 0 1-3.49-9.75V66.47h42.7c5.253 0 8.86 1.12 10.82 3.36a14.81 14.81 0 0 1 3.45 8.59h1.32V50.69h-1.32a16.8 16.8 0 0 1-3.65 8.85c-1.9 2.14-5.43 3.2-10.62 3.2h-42.7V7.37h49.51c6 0 10.19 1.51 12.65 4.53a18.43 18.43 0 0 1 4.18 10.25h1.33V3.61H67.95m262.67 14.31A64.41 64.41 0 0 0 285.84 0a63.83 63.83 0 0 0-24.52 4.81 66.13 66.13 0 0 0-20.91 13.6 63.09 63.09 0 0 0-19.39 45.9 63.52 63.52 0 0 0 8.6 32.37 64.66 64.66 0 0 0 56.4 32.37 62.37 62.37 0 0 0 32.52-8.76 64.16 64.16 0 0 0 23.2-23.53 63 63 0 0 0 8.51-32 64.65 64.65 0 0 0-5.22-26.15 63 63 0 0 0-14.41-20.69m.5 75.9c-3.007 7.82-6.933 14.013-11.78 18.58a44.2 44.2 0 0 1-16 9.88 51.92 51.92 0 0 1-35.67-.24 44 44 0 0 1-16.18-10.71 51 51 0 0 1-11.55-19.17c-2.8-7.84-4.197-17.01-4.19-27.51 0-11.947 1.687-21.99 5.06-30.13 3.373-8.14 7.67-14.443 12.89-18.91a45.13 45.13 0 0 1 16.13-9.24 54.28 54.28 0 0 1 16-2.54 55.47 55.47 0 0 1 21.25 4.7c7.527 3.107 14.163 9.26 19.91 18.46 5.747 9.2 8.623 21.917 8.63 38.15 0 11.287-1.507 20.847-4.52 28.68m178.28 29.79c-2.333-.547-5.073-2.11-8.22-4.69-3.147-2.58-6.637-6.743-10.47-12.49l-31-46.3 26.11-35.52c.56-.89 2.82-3.72 6.82-8.48 3.527-4.533 6.623-7.453 9.29-8.76a25.33 25.33 0 0 1 8.13-2.43V3.61h-32v1.42c4 .22 6.56 1.103 7.68 2.65a7.54 7.54 0 0 1 1.7 4.49c0 2.76-1.74 6.603-5.22 11.53l-24.44 33.31-12.82-19.28c-1.693-2.533-3.297-4.95-4.81-7.25l-2.36-3.55c-9.62-14.41-16.4-23.32-25.15-23.32h-15v1.41a24 24 0 0 1 10.71 3.36c3.14 1.9 7.04 6.447 11.7 13.64l30.29 45.74-29.8 41.08c-.333.5-2.183 2.767-5.55 6.8-5 6.09-11.06 9.06-18.26 8.88v1.33h36.61v-1.33c-4.38.12-7.23-.8-8.55-2.74a9.43 9.43 0 0 1-2-5.31c0-3.21 1.56-6.94 4.72-11.21l25-34.51 13.84 20.86c13.77 20.6 21.53 34.15 32.3 34.15h18.63v-1.33a33.74 33.74 0 0 1-7.88-.83" fill="#0E0E09"/></svg>