<?xml version="1.0" standalone="no"?>
<!DOCTYPE svg PUBLIC "-//W3C//DTD SVG 20010904//EN"
 "http://www.w3.org/TR/2001/REC-SVG-20010904/DTD/svg10.dtd">
<svg version="1.0" xmlns="http://www.w3.org/2000/svg"
 width="260.000000pt" height="260.000000pt" viewBox="0 0 260.000000 260.000000"
 preserveAspectRatio="xMidYMid meet">
<metadata>
Created by potrace 1.11, written by Peter Selinger 2001-2013
</metadata>
<g transform="translate(0.000000,260.000000) scale(0.100000,-0.100000)"
fill="#000000" stroke="none">
<path d="M1173 1661 c-102 -26 -210 -109 -251 -194 -34 -70 -41 -103 -39 -184
4 -142 82 -260 216 -326 59 -29 73 -32 160 -32 87 0 102 3 161 31 135 66 213
183 217 326 6 212 -147 377 -356 384 -42 2 -90 -1 -108 -5z m162 -24 c72 -19
131 -65 170 -131 61 -105 64 -301 5 -416 -96 -187 -379 -195 -490 -15 -44 71
-64 214 -44 321 19 106 100 207 189 236 45 14 128 16 170 5z"/>
<path d="M10 1638 c0 -5 4 -7 9 -4 4 3 17 -4 27 -15 18 -20 19 -42 20 -314 2
-312 -1 -329 -46 -352 -21 -11 -8 -13 90 -11 63 0 105 3 94 5 -12 2 -30 13
-40 25 -16 17 -19 41 -22 163 -3 131 -2 143 15 146 10 3 75 4 146 3 107 -1
131 -4 147 -19 11 -10 20 -25 20 -33 0 -9 3 -12 7 -9 5 6 8 94 4 142 -1 6 -10
-5 -21 -22 -11 -18 -28 -33 -37 -34 -10 0 -76 -1 -148 -2 l-130 -2 -3 160 -2
161 157 -1 c87 -1 168 -5 181 -9 12 -4 31 -24 41 -44 l19 -37 -2 55 -3 55
-261 1 c-146 0 -262 -3 -262 -8z"/>
<path d="M1940 1641 c0 -3 15 -13 33 -21 24 -11 61 -57 143 -179 l111 -165
-64 -85 c-151 -204 -165 -220 -207 -235 -40 -14 -39 -14 69 -14 61 0 101 3 90
5 -48 12 -59 51 -27 101 28 45 146 202 152 202 3 -1 43 -57 88 -125 111 -165
130 -181 213 -183 37 0 54 2 41 6 -47 14 -94 66 -191 211 -56 83 -101 156
-101 163 0 26 205 283 239 300 18 9 34 18 37 20 2 3 -32 4 -76 4 -76 0 -98 -7
-65 -20 31 -12 14 -55 -66 -165 -44 -61 -84 -111 -88 -111 -4 0 -42 51 -84
113 -85 125 -130 176 -155 178 -74 5 -92 5 -92 0z"/>
</g>
</svg>
