<svg width="36" height="36" xmlns="http://www.w3.org/2000/svg"><g fill="none" fill-rule="evenodd"><circle stroke="#00B7BD" opacity=".5" cx="18" cy="18" r="17.5"/><g fill-rule="nonzero"><path d="M19.46 12.058a.456.456 0 0 0-.491.03l-4.854 3.64h-1.618c-.413 0-.766.12-1.058.36-.293.241-.439.535-.439.881l.03 3.048c0 .347.146.643.439.888.292.246.645.369 1.058.369h1.603l4.839 3.64a.459.459 0 0 0 .257.086c.08 0 .156-.02.227-.058a.427.427 0 0 0 .257-.404V12.463a.428.428 0 0 0-.25-.405zm-.718 11.613l-4.189-3.25a.52.52 0 0 0-.272-.072h-1.754a.666.666 0 0 1-.378-.101c-.1-.067-.151-.144-.151-.231l-.03-3.048c0-.077.05-.149.151-.216a.666.666 0 0 1 .378-.101h1.754c.1 0 .192-.03.272-.087l4.219-3.235v10.34zm5.534-5.156l1.588-1.531a.47.47 0 0 0 .136-.332.435.435 0 0 0-.144-.325.476.476 0 0 0-.34-.138.518.518 0 0 0-.348.13l-1.572 1.531-1.573-1.53a.518.518 0 0 0-.348-.13.476.476 0 0 0-.34.137.435.435 0 0 0-.143.325.47.47 0 0 0 .136.332l1.587 1.53-1.572 1.503-.06.087-.046.093-.023.102v.1l.023.102.045.094.06.086a.52.52 0 0 0 .349.13.518.518 0 0 0 .347-.13l1.558-1.516 1.557 1.516c.101.087.217.13.348.13a.476.476 0 0 0 .34-.137.435.435 0 0 0 .144-.325.47.47 0 0 0-.136-.332l-1.573-1.502z" fill="#FFF"/><path d="M11 11h15v14H11z"/></g></g></svg>