<svg width="36" height="36" xmlns="http://www.w3.org/2000/svg"><g fill="none" fill-rule="evenodd"><circle stroke="#00B7BD" opacity=".5" cx="18" cy="18" r="17.5"/><g fill-rule="nonzero"><path d="M19.436 12.058a.442.442 0 0 0-.483.03l-4.86 3.64h-1.599c-.413 0-.765.12-1.056.36-.292.241-.438.535-.438.881l.03 3.048c0 .347.146.643.438.888.292.246.644.369 1.056.369h1.6l4.829 3.64a.432.432 0 0 0 .415.057.92.92 0 0 0 .068-.029.443.443 0 0 0 .256-.404V12.463a.46.46 0 0 0-.256-.405zm-.71 11.613l-4.18-3.25a.519.519 0 0 0-.271-.072h-1.75a.755.755 0 0 1-.28-.05.461.461 0 0 1-.189-.123.242.242 0 0 1-.06-.16l-.03-3.047a.21.21 0 0 1 .038-.115.345.345 0 0 1 .105-.101.649.649 0 0 1 .166-.073.773.773 0 0 1 .219-.028h1.75a.46.46 0 0 0 .272-.087l4.21-3.235v10.34zm4.844-5.084a2.5 2.5 0 0 0-.264-1.134 2.426 2.426 0 0 0-.747-.88 2.371 2.371 0 0 0-1.071-.441.448.448 0 0 0-.37.072.452.452 0 0 0-.188.303c-.02.125.007.24.083.347a.444.444 0 0 0 .309.188c.382.057.692.23.928.52.236.288.355.63.355 1.025 0 .366-.121.696-.363.99a1.512 1.512 0 0 1-.935.541.417.417 0 0 0-.174.072.568.568 0 0 0-.136.13.375.375 0 0 0-.067.16.587.587 0 0 0 0 .187.44.44 0 0 0 .166.267.47.47 0 0 0 .301.108c.03 0 .06-.004.09-.014a2.526 2.526 0 0 0 1.495-.867c.392-.462.588-.987.588-1.574zm-.633-4.246a.47.47 0 0 0-.37.007.445.445 0 0 0-.257.26.434.434 0 0 0 .015.354.477.477 0 0 0 .28.245c.352.125.681.304.988.535a3.544 3.544 0 0 1 1.441 2.845 3.42 3.42 0 0 1-.671 2.044 3.718 3.718 0 0 1-1.758 1.336.427.427 0 0 0-.28.23.43.43 0 0 0-.007.362.497.497 0 0 0 .619.26 4.573 4.573 0 0 0 2.218-1.661c.563-.78.845-1.64.845-2.578 0-.939-.282-1.798-.845-2.578a4.573 4.573 0 0 0-2.218-1.661z" fill="#FFF"/><path d="M10 11h16v14H10z"/></g></g></svg>