<?xml version="1.0" encoding="UTF-8"?>
<svg width="400px" height="300px" viewBox="0 0 400 300" version="1.1" xmlns="http://www.w3.org/2000/svg" xmlns:xlink="http://www.w3.org/1999/xlink">
    <!-- Generator: Sketch 58 (84663) - https://sketch.com -->
    <title>fpr footer logo</title>
    <desc>Created with Sketch.</desc>
    <g id="fpr-footer-logo" stroke="none" stroke-width="1" fill="none" fill-rule="evenodd">
        <g id="fox-logo-white" transform="translate(2.000000, 82.000000)" fill="#BCBCBC" fill-rule="nonzero">
            <path d="M21.9806847,129.588497 C21.2549619,131.094547 20.122005,132.366011 18.7108322,133.258099 C16.4367373,134.701656 13.5032894,135.119883 11.3099315,135.119883 C3.80810944,135.119883 0.0942028986,130.795958 0.0942028986,125.291555 C0.0942028986,120.913665 2.26064838,118.889988 3.5188015,117.95235 C4.29926012,117.318265 6.49934606,115.618375 11.2291944,115.618375 C12.5748127,115.618375 15.7841124,115.800506 18.2667782,117.345247 C19.6722197,118.249249 20.8288995,119.492435 21.630824,120.960884 L18.8050255,121.59497 C18.3483595,120.667218 17.6511947,119.879702 16.786598,119.31496 C15.1095908,118.36242 13.202599,117.893186 11.2762911,117.959096 C6.88284728,117.959096 2.80562379,120.029993 2.80562379,125.244336 C2.75817795,127.177814 3.43786813,129.058446 4.7096737,130.512643 C5.96782682,131.801051 8.11408803,132.8736 11.4377653,132.8736 C14.2904761,132.8736 16.2012541,132.165313 17.3248454,131.274895 C18.1071408,130.686778 18.7427703,129.924809 19.1817986,129.04885 L21.9806847,129.588497 L21.9806847,129.588497 Z M54.2755242,125.682799 C54.2755242,132.003419 49.0948937,135.173847 43.1607169,135.173847 C40.4694803,135.173847 37.7782437,134.674673 35.5781577,133.15017 C33.1407019,131.462133 31.7303344,128.644234 31.8373388,125.676053 C31.8373388,118.836023 37.4620234,115.739796 42.9790585,115.739796 C49.4514825,115.746542 54.2755242,119.551056 54.2755242,125.682799 Z M34.4545665,125.500668 C34.4071834,127.219528 34.9833068,128.897268 36.0760365,130.222583 C37.798428,132.24626 40.4963927,132.92082 43.1607169,132.92082 C49.9830018,132.92082 51.6313842,128.590149 51.6313842,125.446703 C51.6313842,120.56964 47.7358192,117.871403 42.6897505,118.026552 C38.8614664,118.080517 34.4680226,120.023247 34.4680226,125.500668 L34.4545665,125.500668 L34.4545665,125.500668 Z M65.7132798,116.164768 L69.3195369,116.164768 L75.0720552,128.225887 C75.9870756,130.215837 76.1485498,130.613827 76.8482713,132.367681 C77.3347833,130.989755 77.8940038,129.638731 78.5235661,128.320326 L84.3568215,116.17826 L87.9159819,116.17826 L87.9159819,134.688165 L85.4602285,134.688165 L85.4602285,124.030129 C85.3957744,122.140355 85.474495,120.248403 85.6957117,118.370577 C85.3000937,119.481619 84.8372383,120.567428 84.3097249,121.621953 L78.0055031,134.674673 L75.6035744,134.674673 L69.8174157,122.681011 C69.1126535,121.312938 68.4924979,119.902695 67.9604624,118.45827 C68.1193166,120.026997 68.188953,121.60352 68.1690332,123.180184 L68.1690332,134.715147 L65.7132798,134.715147 L65.7132798,116.164768 L65.7132798,116.164768 Z M100.82719,116.164768 L104.433447,116.164768 L110.185965,128.225887 C111.100985,130.215837 111.26246,130.613827 111.968909,132.367681 C112.45015,130.988714 113.007192,129.637527 113.637476,128.320326 L119.470731,116.17826 L123.029892,116.17826 L123.029892,134.688165 L120.56741,134.688165 L120.56741,124.030129 C120.502956,122.140355 120.581677,120.248403 120.802893,118.370577 C120.410116,119.482733 119.947186,120.568716 119.416907,121.621953 L113.119413,134.674673 L110.710756,134.674673 L104.931325,122.681011 C104.229395,121.311582 103.609316,119.901513 103.074372,118.45827 C103.240412,120.026464 103.310068,121.603414 103.282943,123.180184 L103.282943,134.715147 L100.82719,134.715147 L100.82719,116.164768 L100.82719,116.164768 Z M138.585239,116.164768 L138.585239,127.153338 C138.585239,129.298436 138.820723,130.559862 140.41528,131.578447 C141.088089,132.030401 142.561542,132.839872 145.488261,132.839872 C146.983399,132.868947 148.468876,132.593568 149.854793,132.030401 C152.229809,130.951107 152.229809,129.035358 152.229809,127.490618 L152.229809,116.164768 L154.873949,116.164768 L154.873949,127.281504 C154.873949,129.143288 154.873949,131.686376 152.048151,133.521177 C150.769813,134.357631 148.684105,135.119883 145.461349,135.119883 C143.052692,135.119883 140.623851,134.728638 138.639064,133.339046 C136.021837,131.531228 135.947828,129.143288 135.947828,127.045409 L135.947828,116.164768 L138.585239,116.164768 L138.585239,116.164768 Z M170.510034,116.164768 L182.957003,129.426603 C183.647551,130.14362 184.301031,130.895613 184.914878,131.679631 C184.817513,130.783446 184.765864,129.882861 184.760132,128.981394 L184.760132,116.164768 L187.26971,116.164768 L187.26971,134.674673 L184.706307,134.674673 L171.633625,120.805736 C170.960816,120.043484 170.745517,119.780406 170.193814,119.105847 C170.298264,120.168289 170.343189,121.23577 170.328375,122.303257 L170.328375,134.674673 L167.818797,134.674673 L167.818797,116.164768 L170.510034,116.164768 L170.510034,116.164768 Z M200.160733,116.164768 L202.85197,116.164768 L202.85197,134.674673 L200.160733,134.674673 L200.160733,116.164768 Z M236.135839,129.588497 C235.412859,131.094279 234.282112,132.36588 232.872714,133.258099 C230.598619,134.701656 227.665172,135.119883 225.471814,135.119883 C217.963264,135.119883 214.256085,130.795958 214.256085,125.291555 C214.256085,120.913665 216.422531,118.889988 217.680684,117.95235 C218.461142,117.318265 220.661228,115.618375 225.391077,115.618375 C226.736695,115.618375 229.939267,115.800506 232.42866,117.345247 C233.834102,118.249249 234.990782,119.492435 235.792706,120.960884 L232.966908,121.59497 C232.510242,120.667218 231.813077,119.879702 230.94848,119.31496 C229.288618,118.359094 227.398879,117.87843 225.48527,117.925368 C221.091826,117.925368 217.014603,119.996265 217.014603,125.210608 C216.967157,127.144086 217.646847,129.024718 218.918653,130.478915 C220.176806,131.767323 222.323067,132.839872 225.646744,132.839872 C228.499455,132.839872 230.403505,132.131585 231.533824,131.241167 C232.316423,130.655184 232.950293,129.892562 233.384049,129.015122 L236.135839,129.588497 L236.135839,129.588497 Z M253.26556,116.137786 L256.037534,116.137786 L265.537599,134.674673 L262.530142,134.674673 L260.249319,130.101162 L248.899029,130.101162 L246.651846,134.661182 L243.718398,134.661182 L253.26556,116.137786 L253.26556,116.137786 Z M255.223435,120.185141 C255.095601,119.868099 254.940855,119.557801 254.806293,119.240758 C254.724438,119.00849 254.654818,118.772068 254.597722,118.532471 C254.516985,118.768567 254.442976,119.031645 254.335326,119.294723 C254.227677,119.557801 254.046019,119.969282 253.891272,120.286325 L249.995707,127.969555 L259.119,127.969555 L255.223435,120.185141 L255.223435,120.185141 Z M269.944499,116.164768 L287.646108,116.164768 L287.646108,118.370577 L280.090461,118.370577 L280.090461,134.674673 L277.479961,134.674673 L277.479961,118.370577 L269.944499,118.370577 L269.944499,116.164768 Z M297.583499,116.164768 L300.274736,116.164768 L300.274736,134.674673 L297.583499,134.674673 L297.583499,116.164768 Z M334.056483,125.682799 C334.056483,132.003419 328.882581,135.173847 322.948404,135.173847 C320.257168,135.173847 317.53229,134.674673 315.365845,133.15017 C312.926425,131.463846 311.515479,128.644789 311.625026,125.676053 C311.625026,118.836023 317.249711,115.739796 322.766746,115.739796 C329.225714,115.746542 334.056483,119.551056 334.056483,125.682799 Z M314.242254,125.500668 C314.195431,127.218295 314.768845,128.895102 315.856996,130.222583 C317.586115,132.24626 320.277352,132.92082 322.948404,132.92082 C329.770689,132.92082 331.419071,128.590149 331.419071,125.446703 C331.419071,120.56964 327.523506,117.871403 322.477438,118.026552 C318.628969,118.080517 314.242254,120.023247 314.242254,125.500668 L314.242254,125.500668 Z M348.20566,116.164768 L360.652629,129.426603 C361.343177,130.14362 361.996657,130.895613 362.610504,131.679631 C362.513139,130.783446 362.46149,129.882861 362.455758,128.981394 L362.455758,116.164768 L364.965336,116.164768 L364.965336,134.674673 L362.422117,134.674673 L349.349435,120.805736 C348.676626,120.043484 348.461327,119.780406 347.909624,119.105847 C348.014074,120.168289 348.058999,121.23577 348.044186,122.303257 L348.044186,134.674673 L345.534607,134.674673 L345.534607,116.164768 L348.20566,116.164768 L348.20566,116.164768 Z M378.038018,129.932522 C378.401846,130.373622 378.833351,130.753879 379.316355,131.059036 C381.381752,132.34842 383.788886,132.978819 386.219377,132.866855 C390.256232,132.866855 392.496687,131.369333 392.496687,129.116305 C392.496687,126.546235 389.596879,126.310139 385.936797,125.999842 C381.30787,125.601852 379.713313,125.473686 378.300413,124.185278 C377.434762,123.396999 376.957629,122.267642 376.995164,121.095796 C376.995164,115.827489 383.945282,115.699323 385.647489,115.699323 C388.237805,115.699323 390.848304,116.117549 392.994565,117.561106 C393.732153,118.050154 394.36374,118.683383 394.851519,119.422889 L392.469774,120.394255 C392.144515,120.037389 391.786333,119.712153 391.400008,119.422889 C389.707707,118.324501 387.715101,117.784366 385.701314,117.878149 C384.185608,117.829319 382.675561,118.086236 381.260774,118.633655 C380.292775,119.008001 379.643108,119.927876 379.612391,120.96763 C379.60561,121.493777 379.803498,122.001883 380.164095,122.384204 C380.789807,123.119474 381.758652,123.274623 383.481044,123.463499 C385.203435,123.652376 386.804721,123.746814 388.480016,123.935691 C389.278859,124.004254 390.072278,124.125942 390.855032,124.299953 C392.87346,124.772144 395.09373,126.053807 395.09373,129.096069 C395.108452,130.201227 394.779203,131.283502 394.151797,132.192296 C392.711985,134.215973 389.866003,135.126628 386.078087,135.126628 C384.476653,135.124652 382.880698,134.939066 381.321326,134.57349 C377.526683,133.635852 376.194521,131.693122 375.66973,130.93087 L378.038018,129.932522 L378.038018,129.932522 Z M45.7510322,3.53361499 L46.8746235,3.53361499 C48.8263321,3.52608029 50.7180981,4.20926971 52.2167282,5.46285437 C53.8314701,6.74451689 54.632113,9.1661845 54.632113,12.7076204 L54.632113,75.0773662 C54.7374002,77.4602755 53.9502627,79.7965516 52.425299,81.6273362 C51.0463214,83.2598657 49.0080006,84.1838309 46.8746235,84.1434421 L45.7510322,84.1434421 L45.7510322,85.0406059 L72.266441,85.0406059 L72.266441,84.1434421 L71.0957531,84.1434421 C68.9470539,84.1640025 66.8932664,83.2572975 65.4576123,81.6543186 C63.8449004,79.8555836 63.0016211,77.4935894 63.1095084,75.0773662 L63.1095084,45.0122616 L91.8384593,45.0122616 C95.3727258,45.0122616 97.7995484,45.7677679 99.1182544,47.2787806 C100.489643,48.9119869 101.303125,50.9427078 101.439446,53.0732443 L102.327554,53.0732443 L102.327554,34.3677171 L101.439446,34.3677171 C101.215647,36.5543371 100.362416,38.62851 98.9836925,40.3375662 C97.7053551,41.7811229 95.3303388,42.4961557 91.8384593,42.4961557 L63.1095084,42.4961557 L63.1095084,5.14581153 L96.4202897,5.14581153 C100.457145,5.14581153 103.276215,6.16439596 104.931325,8.20156481 C106.553285,10.1629308 107.535027,12.5765737 107.743668,15.1157968 L108.638504,15.1157968 L108.638504,2.60946886 L45.7510322,2.60946886 M222.477813,12.2624113 C214.375603,4.47285041 203.574721,0.139325305 192.349419,0.174075799 C186.690822,0.155596167 181.084322,1.25826389 175.852139,3.41893992 C170.624678,5.55450951 165.850283,8.6678847 161.783699,12.5929454 C153.382106,20.6819208 148.665125,31.8770012 148.73793,43.5552137 C148.68352,51.2216285 150.681705,58.7622663 154.524088,65.3906957 C162.336641,78.9806588 176.825794,87.3181382 192.470525,87.2261778 C200.166253,87.3053511 207.735488,85.2611023 214.350278,81.317039 C220.84631,77.4833666 226.227849,72.0110821 229.959451,65.4446605 C233.753569,58.8899305 235.730387,51.4372045 235.685057,43.8587653 C235.749714,37.7980521 234.553587,31.79037 232.172993,26.2190417 C229.912297,20.9593606 226.614537,16.2120932 222.477813,12.2624113 M222.814218,63.4614563 C220.79108,68.7365095 218.149632,72.9140547 214.888526,75.9947667 C211.818552,78.964757 208.147159,81.2377392 204.123579,82.6594118 C196.355852,85.448784 187.854064,85.3914323 180.124477,82.4975176 C176.004793,80.9315259 172.285687,78.4633415 169.238425,75.2729883 C165.725093,71.5925914 163.070876,67.1758214 161.467479,62.341688 C159.583613,57.0531437 158.643699,50.8674357 158.648391,43.7845638 C158.648391,35.7256048 159.783437,28.9510065 162.052823,23.4600944 C164.322208,17.9691824 167.213269,13.7174356 170.725333,10.7041795 C173.872203,7.89399707 177.568063,5.77133242 181.577744,4.47125231 C185.06037,3.36344284 188.689092,2.78588488 192.342691,2.75787189 C197.270476,2.85777201 202.129719,3.93531771 206.639885,5.92830023 C211.70412,8.02415574 216.168882,12.1747186 220.035516,18.3806635 C223.90215,24.5866083 225.837149,33.164978 225.841859,44.1150978 C225.841859,51.7288478 224.827935,58.177634 222.800761,63.4614563 M342.749178,83.5565756 C341.179514,83.1875917 339.336017,82.1332556 337.218686,80.3928928 C335.101356,78.65253 332.753252,75.84434 330.174374,71.9676481 L309.317291,40.7355561 L326.884338,16.7752125 C327.261111,16.1748548 328.78166,14.2658522 331.472896,11.0549503 C333.845894,7.99717337 335.928911,6.02746044 337.723293,5.14581153 C339.441704,4.2949339 341.290959,3.74076692 343.193232,3.50663262 L343.193232,2.60946886 L321.663339,2.60946886 L321.663339,3.56734295 C324.354575,3.71574598 326.076967,4.31138178 326.830513,5.35492489 C327.530742,6.21259833 327.932369,7.27612512 327.974289,8.3836958 C327.974289,10.2454793 326.803601,12.8378104 324.462225,16.1613636 L308.018769,38.6309314 L299.393356,25.6254295 C298.25429,23.916771 297.175104,22.2863614 296.157144,20.7348752 L294.569314,18.3401899 C288.09689,8.61979153 283.535244,2.60946886 277.648164,2.60946886 L267.556026,2.60946886 L267.556026,3.56059736 C270.10288,3.73441908 272.572343,4.51116765 274.761812,5.82711635 C276.874433,7.10877887 279.498389,10.1759997 282.63368,15.0281041 L303.013069,45.882443 L282.963356,73.5933359 C282.739311,73.9306155 281.494614,75.4598412 279.229265,78.1803386 C275.865219,82.2884043 271.787996,84.2918451 266.94377,84.1704245 L266.94377,85.0675882 L291.575313,85.0675882 L291.575313,84.1704245 C288.628409,84.2513716 286.710903,83.6307771 285.822795,82.3221322 C285.018114,81.2949828 284.5483,80.0443836 284.477177,78.7402227 C284.477177,76.5748876 285.526759,74.0587817 287.652836,71.1784139 L304.473065,47.8993751 L313.784743,61.9706805 C323.049326,75.8666005 328.270325,85.0068779 335.516479,85.0068779 L348.050914,85.0068779 L348.050914,84.1097142 C346.267869,84.1325081 344.488356,83.9445845 342.749178,83.54983" id="Shape"></path>
        </g>
    </g>
</svg>