<?xml version="1.0" encoding="UTF-8"?>
<svg width="400px" height="300px" viewBox="0 0 400 300" version="1.1" xmlns="http://www.w3.org/2000/svg" xmlns:xlink="http://www.w3.org/1999/xlink">
    <!-- Generator: Sketch 58 (84663) - https://sketch.com -->
    <title>ncp footer logo</title>
    <desc>Created with Sketch.</desc>
    <g id="ncp-footer-logo" stroke="none" stroke-width="1" fill="none" fill-rule="evenodd">
        <g id="Group-2" transform="translate(72.000000, 36.000000)" fill="#BCBCBC" fill-rule="nonzero">
            <g id="ncp-logo" transform="translate(0.500000, 0.000000)">
                <g id="Group">
                    <g>
                        <path d="M0,57.7620613 L4.19707234,57.7620613 L18.0516939,75.5637916 L18.0516939,57.7620613 L22.5271434,57.7620613 L22.5271434,83.4946225 L18.7155165,83.4946225 L4.45403598,65.1812255 L4.45403598,83.4946225 L0,83.4946225 L0,57.7620613 Z M49.8937683,57.5701862 L54.1764952,57.5701862 L65.5471351,83.4946225 L60.6862402,83.4946225 L58.0737766,77.2906661 L45.8251778,77.2906661 L43.1698872,83.4946225 L38.5231283,83.4946225 L49.8937683,57.5701862 Z M56.3178586,73.2612925 L51.842409,62.9640039 L47.4097867,73.2612925 L56.3178586,73.2612925 Z M127.02568,83.8996919 C125.481906,83.918892 123.946309,83.6737002 122.485989,83.1748309 C121.183554,82.7324857 119.997889,82.0038135 119.01698,81.0428872 C118.054046,80.0316345 117.323392,78.8240847 116.875617,77.5038604 C116.333649,75.9265746 116.072759,74.2671139 116.104726,72.6003897 L116.104726,57.6767833 L120.66583,57.6767833 L120.66583,72.2805983 C120.517651,74.2542218 121.138831,76.2088213 122.400335,77.7383743 C123.656189,79.0157181 125.404385,79.6917183 127.196989,79.5931654 C128.961496,79.6722595 130.680871,79.0245474 131.950816,77.8023326 C133.211808,76.3142785 133.834767,74.3923672 133.68532,72.4511538 L133.68532,57.5275473 L138.246424,57.5275473 L138.246424,72.2805983 C138.278588,73.9908637 138.010457,75.6935791 137.45412,77.3119855 C137.008845,78.6586341 136.278634,79.8945321 135.312756,80.9362898 C134.331844,81.9077698 133.136641,82.6377973 131.822334,83.0682337 C130.340018,83.5677842 128.78321,83.8128942 127.218402,83.7930945 L127.02568,83.8996919 Z M156.255291,57.7620613 L167.79724,57.7620613 C169.253736,57.74069 170.702879,57.971533 172.079967,58.4442832 C173.251254,58.8500281 174.323734,59.4964966 175.227771,60.3417131 C175.912047,61.055966 176.450244,61.8959152 176.81238,62.8147679 C177.197672,63.7926904 177.393838,64.8343057 177.390548,65.8847668 C177.481132,67.7369475 176.869737,69.5554537 175.677457,70.9801126 C174.501669,72.2891663 172.969126,73.2298301 171.266248,73.687681 L178.247093,83.4306642 L172.893685,83.4306642 L166.469594,74.412542 L160.794981,74.412542 L160.794981,83.3880254 L156.255291,83.3880254 L156.255291,57.8047001 L156.255291,57.7620613 Z M167.454622,70.5537238 C168.841938,70.6320981 170.213085,70.2248259 171.330489,69.4024742 C172.333076,68.6735975 172.916323,67.5042792 172.893685,66.2685168 C172.974434,65.0476073 172.455596,63.8635024 171.501798,63.0919207 C170.336478,62.3074376 168.944738,61.9254564 167.540276,62.0046292 L160.902049,62.0046292 L160.902049,70.6603209 L167.56169,70.6603209 L167.454622,70.5537238 Z M204.371727,57.5701862 L208.654454,57.5701862 L220.00368,83.4946225 L215.207026,83.4946225 L212.594563,77.2906661 L200.32455,77.2906661 L197.66926,83.4946225 L193.001087,83.4946225 L204.371727,57.5701862 Z M210.795818,73.2612925 L206.320368,62.9640039 L201.887746,73.2612925 L210.795818,73.2612925 Z M237.862652,57.7620613 L242.423755,57.7620613 L242.423755,79.3799709 L256,79.3799709 L256,83.4946225 L237.862652,83.4946225 L237.862652,57.7620613 Z M99.2736094,57.7620613 L76.7250522,57.7620613 L76.7250522,62.281782 L85.6973651,62.281782 L85.6973651,83.4946225 L90.2370556,83.4946225 L90.2370556,62.281782 L99.2736094,62.281782 L99.2736094,57.7620613 L99.2736094,57.7620613 Z" id="Shape"></path>
                        <path d="M13.1204097,127.855471 C11.3217668,127.872429 9.53915519,127.520411 7.88547531,126.82171 C6.33157481,126.171854 4.92290346,125.225485 3.74026192,124.036884 C2.55570918,122.822249 1.62620642,121.388247 1.00527577,119.81745 C0.342454681,118.209561 0.00141980254,116.490105 0.00102304673,114.75413 C-0.0210093373,112.977106 0.313024455,111.213317 0.983908693,109.564227 C1.60930722,107.995679 2.5382817,106.562492 3.71889485,105.344793 C4.93755208,104.129755 6.39069313,103.168449 7.9923107,102.517773 C9.69626138,101.811941 11.5291439,101.460049 13.3768147,101.484012 C14.4594602,101.478626 15.5400554,101.577548 16.6032437,101.779372 C17.5055826,101.963808 18.3862805,102.239526 19.2313944,102.602162 C20.0196323,102.941723 20.7712659,103.358735 21.4749377,103.846894 C22.1873782,104.297041 22.865785,104.797656 23.5048102,105.344793 L20.4920521,108.741437 C19.5119253,107.833358 18.4123047,107.059864 17.222889,106.441846 C15.9944363,105.845078 14.6387633,105.548427 13.2699793,105.576862 C12.0910372,105.566729 10.9241422,105.811562 9.85124661,106.294166 C8.82998915,106.754491 7.9140589,107.414817 7.1589946,108.235105 C6.39515241,109.076413 5.7940536,110.048904 5.38552703,111.10432 C4.95599032,112.222962 4.73869815,113.410124 4.74451465,114.60645 C4.73452323,115.808117 4.94444146,117.001687 5.36415996,118.129677 C5.75860333,119.191863 6.36124784,120.166855 7.13762753,120.998892 C7.90013237,121.820174 8.82323568,122.480432 9.85124661,122.939831 C10.9234828,123.424408 12.0908275,123.669335 13.2699793,123.657135 C14.6741203,123.696778 16.0670903,123.399987 17.3297243,122.792151 C18.5524362,122.143136 19.6808329,121.334141 20.6843558,120.387074 L23.5048102,123.340677 C22.8473768,124.024833 22.132601,124.652948 21.3681023,125.218325 C20.6334216,125.764366 19.8461801,126.23781 19.0177236,126.631835 C18.139671,127.043654 17.2140648,127.348292 16.2613704,127.539014 C15.1783754,127.75534 14.0757585,127.861381 12.9708402,127.855471 L13.1204097,127.855471 Z M50.1922923,101.758275 L54.4657082,101.758275 L65.8116273,127.391333 L60.9613003,127.391333 L58.3331494,121.252058 L46.1325472,121.252058 L43.4830294,127.391333 L38.8463732,127.391333 L50.1922923,101.758275 Z M56.6024161,117.28579 L52.1366966,107.095858 L47.713711,117.28579 L56.6024161,117.28579 Z M84.1018471,101.948149 L94.2725768,101.948149 C95.6563222,101.926274 97.0345266,102.125762 98.3536889,102.53887 C99.4979455,102.894457 100.553575,103.483892 101.451916,104.268838 C102.299144,105.008001 102.970415,105.922941 103.417687,106.948178 C103.888927,108.05616 104.121767,109.248762 104.101433,110.450308 C104.131337,111.747487 103.853268,113.033566 103.289484,114.205604 C102.79381,115.260023 102.063414,116.190332 101.152776,116.927138 C100.176794,117.672579 99.0679184,118.230747 97.8836132,118.572717 C96.5803467,118.956969 95.2267166,119.148917 93.8666023,119.142341 L88.7385033,119.142341 L88.7385033,127.328042 L84.1018471,127.328042 L84.1018471,102.011441 L84.1018471,101.948149 Z M94.016172,115.154976 C95.4803368,115.234849 96.9237517,114.784792 98.0759169,113.889146 C99.0424171,113.073149 99.5906492,111.874541 99.5716124,110.619085 C99.6593773,109.309963 99.0927448,108.041295 98.0545499,107.222441 C96.8660539,106.410029 95.4383929,106.009398 93.9948047,106.083194 L88.653035,106.083194 L88.653035,115.19717 L94.016172,115.19717 L94.016172,115.154976 Z M125.105272,101.948149 L129.635093,101.948149 L129.635093,127.41243 L125.105272,127.41243 L125.105272,101.948149 Z M202.133593,101.758275 L206.407009,101.758275 L217.752928,127.391333 L212.902601,127.391333 L210.295817,121.252058 L198.095215,121.252058 L195.445697,127.391333 L190.787674,127.391333 L202.133593,101.758275 Z M208.543717,117.28579 L204.077997,107.095858 L199.655012,117.28579 L208.543717,117.28579 Z M237.902084,101.948149 L242.453272,101.948149 L242.453272,123.340677 L256,123.340677 L256,127.41243 L237.902084,127.41243 L237.902084,101.948149 Z M175.723883,101.948149 L153.224349,101.948149 L153.224349,106.420749 L162.198522,106.420749 L162.198522,127.41243 L166.728343,127.41243 L166.728343,106.420749 L175.723883,106.420749 L175.723883,101.948149 L175.723883,101.948149 Z" id="Shape"></path>
                        <path d="M247.98862,39.9454202 L256,39.9454202 C179.229999,-12.8009612 76.7700007,-12.8009612 0,39.9454202 L8.0756422,39.9454202 C80.8418952,-6.89138873 175.222367,-6.89138873 247.98862,39.9454202" id="Path"></path>
                        <path d="M0,156.641773 L10.1578174,156.641773 C11.5355581,156.621968 12.907505,156.823522 14.2209444,157.238692 C15.3636515,157.603732 16.4190335,158.198716 17.3217518,158.986809 C18.183006,159.751828 18.862406,160.698579 19.3105456,161.758216 C19.7769296,162.871931 20.0098102,164.068995 19.9948617,165.27577 C20.0234057,166.593283 19.7452528,167.899463 19.1822363,169.091783 C18.6806,170.153886 17.9504783,171.09282 17.0437484,171.841871 C16.0597243,172.596207 14.9427227,173.160206 13.7504771,173.504714 C12.4461248,173.892997 11.0913671,174.086959 9.73011988,174.080314 L4.53359432,174.080314 L4.53359432,182.351896 L0,182.351896 L0,156.641773 Z M9.81565939,169.98716 C11.2880212,170.071158 12.7404817,169.616304 13.9001712,168.70805 C14.8674766,167.883491 15.4161653,166.672309 15.3971128,165.403681 C15.4849508,164.080824 14.9178461,162.798845 13.8787864,161.971401 C12.6935955,161.141439 11.261559,160.735702 9.81565939,160.820201 L4.53359432,160.820201 L4.53359432,170.051116 L9.81565939,170.051116 L9.81565939,169.98716 Z M39.6047955,156.449907 L43.8817713,156.449907 L55.066063,182.394533 L50.3827745,182.394533 L47.7738194,176.169528 L35.5416685,176.169528 L32.8899437,182.394533 L28.249425,182.394533 L39.6047955,156.449907 Z M46.0202592,172.161648 L41.5508196,161.864808 L37.1241496,172.161648 L46.0202592,172.161648 Z M68.9448494,156.641773 L80.4499141,156.641773 C81.90458,156.618658 83.3520787,156.849539 84.7268899,157.323966 C85.9002593,157.721911 86.9728672,158.369297 87.8704671,159.221313 C88.5766927,159.950289 89.1293107,160.812887 89.4957179,161.758216 C89.8743504,162.7446 90.0629826,163.793321 90.0517247,164.8494 C90.142187,166.7015 89.5316134,168.519926 88.3409345,169.944523 C87.1639239,171.24569 85.6337189,172.178735 83.9356495,172.630655 L90.90712,182.373214 L85.5181305,182.373214 L79.1026668,173.398122 L73.4998285,173.398122 L73.4998285,182.373214 L68.9448494,182.373214 L68.9448494,156.641773 L68.9448494,156.641773 Z M80.1291411,169.432879 C81.5297442,169.4711 82.8994424,169.018466 83.999804,168.153769 C84.9499799,167.395624 85.481889,166.232221 85.4325909,165.019948 C85.5420753,163.769935 85.0210969,162.547438 84.0425739,161.758216 C82.8888346,160.969483 81.5041722,160.586881 80.1077561,160.670972 L73.4998285,160.670972 L73.4998285,169.304968 L80.1505258,169.304968 L80.1505258,169.432879 L80.1291411,169.432879 Z M128.052654,156.641773 L132.265476,156.641773 L146.080107,174.442729 L146.080107,156.641773 L150.549547,156.641773 L150.549547,182.394533 L146.764423,182.394533 L132.522094,164.081933 L132.522094,182.394533 L128.052654,182.394533 L128.052654,156.641773 L128.052654,156.641773 Z M167.636065,156.641773 L186.796917,156.641773 L186.796917,160.69229 L172.191044,160.69229 L172.191044,167.386302 L185.128896,167.386302 L185.128896,171.415501 L172.191044,171.415501 L172.191044,178.344016 L186.967996,178.344016 L186.967996,182.394533 L167.636065,182.394533 L167.636065,156.641773 L167.636065,156.641773 Z M202.921115,156.641773 L214.42618,156.641773 C215.880783,156.619534 217.32813,156.850391 218.703156,157.323966 C219.874251,157.726763 220.945876,158.373556 221.846734,159.221313 C222.528387,159.936865 223.065637,160.776427 223.429214,161.69426 C223.808842,162.680368 223.997508,163.72928 223.98522,164.785444 C224.075684,166.637544 223.465109,168.455971 222.274431,169.880568 C221.10022,171.189565 219.569736,172.130187 217.869145,172.588019 L224.840616,182.330577 L219.451626,182.330577 L213.036163,173.355485 L207.454709,173.355485 L207.454709,182.330577 L202.921115,182.330577 L202.921115,156.748366 L202.921115,156.641773 Z M214.105407,169.432879 C215.490224,169.505878 216.857746,169.099154 217.97607,168.28168 C218.926246,167.523535 219.458155,166.360132 219.408857,165.147859 C219.484388,163.92326 218.957964,162.738507 217.997455,161.971401 C216.843716,161.182668 215.459053,160.800067 214.062637,160.884157 L207.454709,160.884157 L207.454709,169.518153 L214.084022,169.518153 L214.105407,169.432879 Z M246.86704,182.756948 C244.911791,182.768896 242.970383,182.429482 241.135894,181.754977 C239.269455,181.048721 237.556226,179.992132 236.089062,178.642475 L238.826328,175.402062 C239.976231,176.411488 241.265296,177.251446 242.654221,177.896327 C244.004853,178.474071 245.461557,178.764507 246.931196,178.749068 C248.110529,178.812827 249.279429,178.4991 250.267237,177.85369 C251.050214,177.329916 251.51635,176.44861 251.507561,175.508654 C251.517547,175.084567 251.437378,174.663174 251.272325,174.272181 C251.062156,173.868256 250.753254,173.523653 250.374162,173.270211 C249.827949,172.900235 249.229822,172.612876 248.599217,172.41747 C247.640819,172.08591 246.662275,171.815332 245.669488,171.607367 C244.420041,171.328783 243.191119,170.965524 241.991288,170.520123 C241.0196,170.17748 240.109739,169.68077 239.296794,169.049146 C238.575896,168.483591 238.0035,167.752026 237.628773,166.917295 C237.219595,165.96153 237.022626,164.928843 237.051381,163.890067 C237.041023,162.844115 237.267631,161.809323 237.714314,160.862838 C238.146315,159.96136 238.765966,159.161946 239.532028,158.517802 C240.354396,157.837539 241.297345,157.316912 242.312063,156.98287 C243.456481,156.603725 244.656054,156.416423 245.861951,156.428588 C247.601458,156.403202 249.331762,156.684677 250.972939,157.26001 C252.520798,157.825204 253.965522,158.63894 255.249913,159.669002 L252.812039,163.101282 C251.732966,162.299117 250.554094,161.639852 249.304917,161.139979 C248.189282,160.694846 246.999458,160.463405 245.797798,160.457787 C244.694513,160.388671 243.600609,160.697022 242.696991,161.331846 C242.010381,161.828361 241.598385,162.618203 241.584977,163.463697 C241.576111,163.917385 241.663562,164.367817 241.841594,164.785444 C242.059524,165.209921 242.393046,165.564574 242.803913,165.808733 C243.394998,166.166495 244.02674,166.45276 244.685785,166.661473 C245.469895,166.931507 246.489241,167.215754 247.743821,167.514213 C248.958015,167.811639 250.151065,168.189096 251.315095,168.644094 C252.261385,169.013578 253.142195,169.531787 253.924052,170.179027 C254.603614,170.758973 255.138136,171.488923 255.485147,172.310878 C255.844262,173.197506 256.018874,174.147644 255.998385,175.103603 C256.016625,176.221203 255.782761,177.32861 255.314069,178.344016 C254.872075,179.287119 254.221347,180.11805 253.410814,180.774326 C252.551144,181.465376 251.562673,181.979815 250.50247,182.28794 C249.294041,182.639531 248.040286,182.811926 246.781501,182.799585 L246.86704,182.756948 Z" id="Shape"></path>
                        <polygon id="Path" points="0 138.844885 0 143.458018 106.297281 143.458018 106.297281 182.800203 110.815558 182.800203 110.815558 143.458018 256 143.458018 256 138.844885"></polygon>
                    </g>
                </g>
            </g>
        </g>
    </g>
</svg>