<?xml version="1.0" encoding="UTF-8"?>
<svg width="201px" height="50px" viewBox="0 0 201 50" version="1.1" xmlns="http://www.w3.org/2000/svg" xmlns:xlink="http://www.w3.org/1999/xlink">
    <!-- Generator: Sketch 54.1 (76490) - https://sketchapp.com -->
    <title>Epicure logo EPS</title>
    <desc>Created with Sketch.</desc>
    <g id="01.-Homepage" stroke="none" stroke-width="1" fill="none" fill-rule="evenodd">
        <g id="01.-Fox-PR---Homepage---004" transform="translate(-832.000000, -4312.000000)" fill="#FAFAFA">
            <g id="Group-16" transform="translate(0.000000, 4058.000000)">
                <g id="Group-7" transform="translate(832.000000, 254.000000)">
                    <g id="Epicure-logo-EPS" transform="translate(-0.000000, 0.000000)">
                        <path d="M33.3239362,16.5292553 L32.8345745,16.5292553 C32.0026596,9.13989362 28.675,5.17606383 20.2585106,5.17606383 L15.3654255,5.17606383 L15.3654255,21.3244681 C20.7968085,21.3244681 24.9074468,18.8781915 25.2005319,13.6420213 L25.5430851,13.6420213 L24.7111702,29.4473404 L24.368617,29.4473404 C24.6132979,24.7010638 20.7968085,21.6670213 15.3654255,21.6670213 L15.3654255,34.0473404 C15.3654255,37.5218085 16.0989362,38.5494681 18.3010638,38.5494681 C28.087766,38.5494681 33.1281915,33.068617 34.6452128,24.4069149 L35.1345745,24.4069149 L32.7856383,38.9898936 L0,38.9898936 L0,38.6473404 C5.28457447,38.6473404 5.28457447,35.9069149 5.28457447,30.181383 L5.28457447,13.5441489 C5.28457447,7.62287234 5.28457447,5.07819149 0,5.07819149 L0,4.73617021 L32.1005319,4.73617021 L33.3239362,16.5292553" id="Fill-1"></path>
                        <path d="M49.6611702,33.4111702 C49.6611702,37.375 49.8569149,38.9409574 52.6952128,38.9409574 C56.1207447,38.9409574 57.5398936,35.1239362 57.5398936,26.0712766 C57.5398936,23.6728723 57.5398936,15.4031915 53.625,15.4031915 C52.2058511,15.4031915 50.8845745,16.9207447 49.6611702,18.7797872 L49.6611702,33.4111702 Z M40.6085106,20.6882979 C40.6085106,17.4095745 39.9234043,16.0888298 35.7643617,17.0670213 L35.6664894,16.7244681 L49.7590426,12.9569149 L49.612234,18.2414894 C51.8632979,14.7675532 54.212234,12.9569149 57.4420213,12.9569149 C62.6287234,12.9569149 67.1303191,17.6542553 67.1303191,24.6026596 C67.1303191,32.3840426 61.5521277,39.3319149 53.037766,39.3319149 C51.8143617,39.3319149 50.6398936,39.087234 49.5632979,38.7941489 L49.6611702,43.4425532 C49.7590426,48.6787234 49.9058511,49.6569149 54.8973404,49.6569149 L54.8973404,50 L36.3515957,50 L36.3515957,49.6569149 C40.1680851,49.6569149 40.6085106,48.6787234 40.6085106,43.4425532 L40.6085106,20.6882979 L40.6085106,20.6882979 Z" id="Fill-3"></path>
                        <path d="M81.5047872,5.56808511 C81.5047872,8.5037234 79.156383,10.9015957 76.2202128,10.9015957 C73.3329787,10.9015957 70.9351064,8.5037234 70.9351064,5.56808511 C70.9351064,2.68085106 73.3329787,0.331914894 76.2202128,0.331914894 C79.156383,0.331914894 81.5047872,2.63191489 81.5047872,5.56808511 Z M67.4611702,38.9898936 L67.4611702,38.6473404 C71.2776596,38.6473404 71.7180851,37.668617 71.7180851,32.4329787 L71.7180851,20.6882979 C71.7180851,17.4095745 71.0329787,16.0888298 66.8739362,17.0670213 L66.7760638,16.7244681 L80.7707447,12.9569149 L80.7707447,32.4329787 C80.7707447,37.668617 81.2117021,38.6473404 85.0281915,38.6473404 L85.0281915,38.9898936 L67.4611702,38.9898936 L67.4611702,38.9898936 Z" id="Fill-4"></path>
                        <path d="M98.0952128,12.9569149 C102.45,12.9569149 108.909574,14.425 108.909574,19.7585106 C108.909574,22.8904255 106.658511,24.3095745 104.309574,24.3095745 C102.107447,24.3095745 100.101596,22.9882979 99.9542553,20.1989362 C101.030851,19.7095745 101.667553,18.5351064 101.667553,17.2138298 C101.667553,15.1585106 100.101596,13.3484043 97.8505319,13.3484043 C93.7398936,13.3484043 92.5654255,19.1712766 92.5654255,22.6946809 C92.5654255,29.5946809 97.0675532,33.3132979 101.912234,33.3132979 C104.358511,33.3132979 107.490426,32.3840426 109.251596,29.6920213 L109.545213,29.8393617 C107.147872,35.075 102.939362,39.3319149 96.2356383,39.3319149 C89.237766,39.3319149 83.6595745,34.3414894 83.6595745,26.5606383 C83.6595745,18.5351064 89.6297872,12.9569149 98.0952128,12.9569149" id="Fill-5"></path>
                        <path d="M130.685106,19.5138298 C130.685106,16.2351064 130.63617,14.4734043 127.014894,15.012234 L126.965957,14.6696809 L139.737766,12.9569149 L139.737766,32.775 C139.737766,36.0537234 140.031383,37.9132979 143.994681,37.1303191 L144.043617,37.4728723 C139.982447,38.6962766 137.095745,39.3319149 135.08883,39.3319149 C131.468085,39.3319149 130.685106,37.4234043 130.831915,33.9984043 C125.987234,38.1085106 122.904787,39.3319149 119.919681,39.3319149 C115.955851,39.3319149 114.243617,37.1303191 114.243617,32.1393617 L114.243617,19.5138298 C114.243617,16.2351064 114.096277,14.5718085 109.594149,15.1585106 L109.545213,14.8159574 L123.295745,12.9569149 L123.295745,30.8664894 C123.295745,32.8734043 123.540426,35.5154255 126.378723,35.5154255 C127.553191,35.5154255 129.217021,34.8792553 130.685106,33.6074468 L130.685106,19.5138298" id="Fill-6"></path>
                        <g id="Group-10" transform="translate(143.617021, 12.765957)">
                            <path d="M14.3728723,6.8462766 C15.5473404,3.56755319 17.5531915,0.190957447 22.2026596,0.190957447 C25.5292553,0.190957447 29.1015957,2.2462766 29.1015957,6.25851064 C29.1015957,9.14574468 26.9484043,12.0329787 23.7680851,12.0329787 C21.5659574,12.0329787 19.5601064,10.7117021 19.412766,7.92234043 C21.0765957,7.53085106 21.8595745,5.86702128 21.8595745,4.35 C21.8595745,2.93138298 21.1744681,1.4143617 19.8047872,1.4143617 C17.112766,1.4143617 15.3515957,4.98670213 14.4218085,7.87340426 L14.4218085,19.6670213 C14.4218085,24.9026596 14.6664894,25.881383 19.6574468,25.881383 L19.6574468,26.2239362 L1.11170213,26.2239362 L1.11170213,25.881383 C4.9287234,25.881383 5.36914894,24.9026596 5.36914894,19.6670213 L5.36914894,7.92234043 C5.36914894,4.64361702 4.68404255,3.32287234 0.525,4.30106383 L0.426595745,3.95851064 L14.5196809,0.190957447 L14.3728723,6.8462766" id="Fill-7"></path>
                            <path d="M39.2430851,10.0755319 L47.0723404,10.0755319 C47.8553191,7.04148936 47.9042553,0.582446809 43.9898936,0.582446809 C40.5148936,0.582446809 39.2914894,6.65 39.2430851,10.0755319 Z M39.2430851,10.5648936 C39.2430851,15.7026596 41.9340426,20.7430851 48.2957447,20.7430851 C52.1617021,20.7430851 54.8042553,18.8840426 56.5164894,16.0457447 L56.8101064,16.1920213 C54.5101064,22.0159574 50.106383,26.5659574 43.1085106,26.5659574 C35.1324468,26.5659574 30.043617,21.0861702 30.043617,13.256383 C30.043617,5.42659574 36.7962766,0.190957447 44.7723404,0.190957447 C52.8462766,0.190957447 57.2994681,4.35 55.7335106,10.5648936 L39.2430851,10.5648936 L39.2430851,10.5648936 Z" id="Fill-9"></path>
                        </g>
                    </g>
                </g>
            </g>
        </g>
    </g>
</svg>